<mxfile host="app.diagrams.net" modified="2022-12-08T18:56:36.836Z" agent="5.0 (Windows NT 10.0; Win64; x64) AppleWebKit/537.36 (KHTML, like Gecko) Chrome/108.0.0.0 Safari/537.36" etag="ioY7gIJWs00biVU7AkDQ" version="20.6.1" type="github">
  <diagram name="Page-1" id="edf60f1a-56cd-e834-aa8a-f176f3a09ee4">
    <mxGraphModel dx="2555" dy="1110" grid="1" gridSize="10" guides="1" tooltips="1" connect="1" arrows="1" fold="1" page="1" pageScale="1" pageWidth="1100" pageHeight="850" background="none" math="0" shadow="0">
      <root>
        <mxCell id="0" />
        <mxCell id="1" parent="0" />
        <mxCell id="60e70716793133e9-31" style="edgeStyle=orthogonalEdgeStyle;rounded=0;html=1;labelBackgroundColor=none;startSize=5;endArrow=classicThin;endFill=1;endSize=5;jettySize=auto;orthogonalLoop=1;strokeWidth=1;fontFamily=Verdana;fontSize=8;entryX=0.5;entryY=0;entryDx=0;entryDy=0;" parent="1" source="60e70716793133e9-2" target="60e70716793133e9-5" edge="1">
          <mxGeometry relative="1" as="geometry">
            <Array as="points">
              <mxPoint x="485" y="90" />
              <mxPoint x="485" y="150" />
              <mxPoint x="495" y="150" />
            </Array>
          </mxGeometry>
        </mxCell>
        <mxCell id="60e70716793133e9-2" value="&lt;font style=&quot;font-size: 18px;&quot;&gt;&lt;b&gt;Satellite data API&lt;/b&gt;&lt;br&gt;&lt;/font&gt;https://www.sentinel-hub.com/develop/api/&lt;br&gt;&lt;b&gt;Define area: Med Sea&lt;/b&gt;" style="shape=trapezoid;whiteSpace=wrap;html=1;rounded=0;shadow=1;labelBackgroundColor=none;strokeWidth=1;fontFamily=Verdana;fontSize=8;align=center;flipV=1;" parent="1" vertex="1">
          <mxGeometry x="60" y="40" width="315" height="100" as="geometry" />
        </mxCell>
        <mxCell id="60e70716793133e9-33" value="Yes" style="edgeStyle=orthogonalEdgeStyle;rounded=0;html=1;labelBackgroundColor=none;startSize=5;endArrow=classicThin;endFill=1;endSize=5;jettySize=auto;orthogonalLoop=1;strokeWidth=1;fontFamily=Verdana;fontSize=8" parent="1" target="60e70716793133e9-7" edge="1">
          <mxGeometry x="-0.7778" y="10" relative="1" as="geometry">
            <mxPoint as="offset" />
            <mxPoint x="550" y="215" as="sourcePoint" />
            <Array as="points">
              <mxPoint x="975" y="220" />
            </Array>
          </mxGeometry>
        </mxCell>
        <mxCell id="60e70716793133e9-37" value="No" style="edgeStyle=orthogonalEdgeStyle;rounded=0;html=1;labelBackgroundColor=none;startSize=5;endArrow=classicThin;endFill=1;endSize=5;jettySize=auto;orthogonalLoop=1;strokeWidth=1;fontFamily=Verdana;fontSize=8" parent="1" source="60e70716793133e9-5" target="60e70716793133e9-9" edge="1">
          <mxGeometry x="-0.5" y="10" relative="1" as="geometry">
            <mxPoint as="offset" />
          </mxGeometry>
        </mxCell>
        <mxCell id="60e70716793133e9-5" value="API&lt;br&gt;&amp;nbsp;Image recognition" style="rhombus;whiteSpace=wrap;html=1;rounded=0;shadow=1;labelBackgroundColor=none;strokeWidth=1;fontFamily=Verdana;fontSize=8;align=center;" parent="1" vertex="1">
          <mxGeometry x="445" y="170" width="100" height="90" as="geometry" />
        </mxCell>
        <mxCell id="60e70716793133e9-35" value="No" style="edgeStyle=orthogonalEdgeStyle;rounded=0;html=1;labelBackgroundColor=none;startSize=5;endArrow=classicThin;endFill=1;endSize=5;jettySize=auto;orthogonalLoop=1;strokeWidth=1;fontFamily=Verdana;fontSize=8" parent="1" source="60e70716793133e9-7" target="60e70716793133e9-10" edge="1">
          <mxGeometry x="-1" y="-10" relative="1" as="geometry">
            <mxPoint x="805" y="350" as="targetPoint" />
            <Array as="points" />
            <mxPoint as="offset" />
          </mxGeometry>
        </mxCell>
        <mxCell id="60e70716793133e9-7" value="&lt;font style=&quot;font-size: 18px;&quot;&gt;&lt;b&gt;Alert&lt;/b&gt;:&lt;br&gt;Info&lt;br&gt;Near ship AIS&lt;br&gt;Weather&lt;/font&gt;" style="rhombus;whiteSpace=wrap;html=1;rounded=0;shadow=1;labelBackgroundColor=none;strokeWidth=1;fontFamily=Verdana;fontSize=8;align=center;" parent="1" vertex="1">
          <mxGeometry x="880" y="260" width="190" height="120" as="geometry" />
        </mxCell>
        <mxCell id="60e70716793133e9-9" value="drop data" style="whiteSpace=wrap;html=1;rounded=0;shadow=1;labelBackgroundColor=none;strokeWidth=1;fontFamily=Verdana;fontSize=8;align=center;" parent="1" vertex="1">
          <mxGeometry x="30" y="300" width="120" height="40" as="geometry" />
        </mxCell>
        <mxCell id="60e70716793133e9-39" style="edgeStyle=orthogonalEdgeStyle;rounded=0;html=1;labelBackgroundColor=none;startSize=5;endArrow=classicThin;endFill=1;endSize=5;jettySize=auto;orthogonalLoop=1;strokeWidth=1;fontFamily=Verdana;fontSize=8" parent="1" source="60e70716793133e9-10" target="60e70716793133e9-12" edge="1">
          <mxGeometry relative="1" as="geometry" />
        </mxCell>
        <mxCell id="60e70716793133e9-10" value="&lt;font style=&quot;font-size: 18px;&quot;&gt;Define dang rate of spill&lt;br&gt;&lt;div style=&quot;text-align: left;&quot;&gt;&lt;span style=&quot;background-color: initial;&quot;&gt;1. spectral characteristics (LUT)&lt;/span&gt;&lt;/div&gt;&lt;div style=&quot;text-align: left;&quot;&gt;&lt;span style=&quot;background-color: initial;&quot;&gt;2. overlap with spatial data&lt;/span&gt;&lt;/div&gt;&lt;/font&gt;" style="whiteSpace=wrap;html=1;rounded=0;shadow=1;labelBackgroundColor=none;strokeWidth=1;fontFamily=Verdana;fontSize=8;align=center;" parent="1" vertex="1">
          <mxGeometry x="505" y="440" width="350" height="90" as="geometry" />
        </mxCell>
        <mxCell id="60e70716793133e9-12" value="&lt;span style=&quot;font-size: 18px;&quot;&gt;Simulation/Modeling API&lt;/span&gt;" style="whiteSpace=wrap;html=1;rounded=0;shadow=1;labelBackgroundColor=none;strokeWidth=1;fontFamily=Verdana;fontSize=8;align=center;spacing=6;" parent="1" vertex="1">
          <mxGeometry x="280" y="630" width="310" height="50" as="geometry" />
        </mxCell>
        <mxCell id="JxC6mWeHpskzbYdKK2vP-1" value="&lt;b&gt;&lt;font style=&quot;font-size: 18px;&quot;&gt;API - AIS ?&lt;br&gt;&lt;/font&gt;Define area: Med Sea&lt;br&gt;&lt;/b&gt;" style="shape=trapezoid;whiteSpace=wrap;html=1;rounded=0;shadow=1;labelBackgroundColor=none;strokeWidth=1;fontFamily=Verdana;fontSize=8;align=center;flipV=1;" vertex="1" parent="1">
          <mxGeometry x="670" y="40" width="190" height="100" as="geometry" />
        </mxCell>
        <mxCell id="JxC6mWeHpskzbYdKK2vP-4" style="edgeStyle=orthogonalEdgeStyle;rounded=0;html=1;labelBackgroundColor=none;startSize=5;endArrow=classicThin;endFill=1;endSize=5;jettySize=auto;orthogonalLoop=1;strokeWidth=1;fontFamily=Verdana;fontSize=8;entryX=0.5;entryY=0;entryDx=0;entryDy=0;" edge="1" parent="1" source="JxC6mWeHpskzbYdKK2vP-1" target="60e70716793133e9-5">
          <mxGeometry relative="1" as="geometry">
            <mxPoint x="415" y="100.05882352941177" as="sourcePoint" />
            <mxPoint x="505.0588235294117" y="240.03529411764714" as="targetPoint" />
            <Array as="points">
              <mxPoint x="505" y="90" />
              <mxPoint x="505" y="150" />
              <mxPoint x="495" y="150" />
            </Array>
          </mxGeometry>
        </mxCell>
        <mxCell id="JxC6mWeHpskzbYdKK2vP-6" value="&lt;b&gt;Pollution&lt;/b&gt;" style="text;html=1;align=center;verticalAlign=middle;resizable=0;points=[];autosize=1;strokeColor=none;fillColor=none;" vertex="1" parent="1">
          <mxGeometry x="630" y="170" width="70" height="30" as="geometry" />
        </mxCell>
        <mxCell id="JxC6mWeHpskzbYdKK2vP-10" style="edgeStyle=none;rounded=0;orthogonalLoop=1;jettySize=auto;html=1;exitX=1;exitY=0;exitDx=0;exitDy=0;fontSize=18;" edge="1" parent="1" source="60e70716793133e9-5" target="60e70716793133e9-5">
          <mxGeometry relative="1" as="geometry" />
        </mxCell>
        <mxCell id="JxC6mWeHpskzbYdKK2vP-15" value="" style="edgeStyle=none;rounded=0;orthogonalLoop=1;jettySize=auto;html=1;fontSize=18;entryX=0.5;entryY=1;entryDx=0;entryDy=0;" edge="1" parent="1" source="JxC6mWeHpskzbYdKK2vP-12" target="60e70716793133e9-5">
          <mxGeometry relative="1" as="geometry">
            <mxPoint x="360" y="230" as="targetPoint" />
            <Array as="points">
              <mxPoint x="495" y="370" />
            </Array>
          </mxGeometry>
        </mxCell>
        <mxCell id="JxC6mWeHpskzbYdKK2vP-12" value="Pixels class&lt;br&gt;LUT (semion)" style="rhombus;whiteSpace=wrap;html=1;fontSize=18;" vertex="1" parent="1">
          <mxGeometry x="280" y="310" width="160" height="130" as="geometry" />
        </mxCell>
        <mxCell id="JxC6mWeHpskzbYdKK2vP-16" value="" style="edgeStyle=none;rounded=0;orthogonalLoop=1;jettySize=auto;html=1;fontSize=18;entryX=0.5;entryY=0;entryDx=0;entryDy=0;exitX=0;exitY=0.5;exitDx=0;exitDy=0;" edge="1" parent="1" source="60e70716793133e9-5" target="JxC6mWeHpskzbYdKK2vP-12">
          <mxGeometry relative="1" as="geometry">
            <mxPoint x="446.5122615803816" y="382.1662125340598" as="sourcePoint" />
            <mxPoint x="505" y="270" as="targetPoint" />
            <Array as="points">
              <mxPoint x="360" y="215" />
            </Array>
          </mxGeometry>
        </mxCell>
        <mxCell id="JxC6mWeHpskzbYdKK2vP-17" value="To" style="text;html=1;align=center;verticalAlign=middle;resizable=0;points=[];autosize=1;strokeColor=none;fillColor=none;fontSize=18;" vertex="1" parent="1">
          <mxGeometry x="360" y="250" width="40" height="40" as="geometry" />
        </mxCell>
        <mxCell id="JxC6mWeHpskzbYdKK2vP-18" value="From" style="text;html=1;align=center;verticalAlign=middle;resizable=0;points=[];autosize=1;strokeColor=none;fillColor=none;fontSize=18;" vertex="1" parent="1">
          <mxGeometry x="495" y="310" width="70" height="40" as="geometry" />
        </mxCell>
        <mxCell id="JxC6mWeHpskzbYdKK2vP-19" value="&lt;font style=&quot;font-size: 18px;&quot;&gt;Adjust material quantities if needed&lt;/font&gt;" style="whiteSpace=wrap;html=1;rounded=0;shadow=1;labelBackgroundColor=none;strokeWidth=1;fontFamily=Verdana;fontSize=8;align=center;spacing=6;" vertex="1" parent="1">
          <mxGeometry x="760" y="680" width="310" height="110" as="geometry" />
        </mxCell>
        <mxCell id="JxC6mWeHpskzbYdKK2vP-20" style="edgeStyle=orthogonalEdgeStyle;rounded=0;html=1;labelBackgroundColor=none;startSize=5;endArrow=classicThin;endFill=1;endSize=5;jettySize=auto;orthogonalLoop=1;strokeWidth=1;fontFamily=Verdana;fontSize=8;exitX=0.5;exitY=1;exitDx=0;exitDy=0;" edge="1" parent="1" source="60e70716793133e9-10" target="JxC6mWeHpskzbYdKK2vP-19">
          <mxGeometry relative="1" as="geometry">
            <mxPoint x="690" y="540" as="sourcePoint" />
            <mxPoint x="405.07692307692287" y="700" as="targetPoint" />
            <Array as="points">
              <mxPoint x="680" y="580" />
              <mxPoint x="905" y="580" />
            </Array>
          </mxGeometry>
        </mxCell>
        <mxCell id="JxC6mWeHpskzbYdKK2vP-21" value="&lt;span style=&quot;color: rgb(0, 0, 0); font-family: Verdana; font-size: 18px; font-style: normal; font-variant-ligatures: normal; font-variant-caps: normal; font-weight: 400; letter-spacing: normal; orphans: 2; text-indent: 0px; text-transform: none; widows: 2; word-spacing: 0px; -webkit-text-stroke-width: 0px; background-color: rgb(248, 249, 250); text-decoration-thickness: initial; text-decoration-style: initial; text-decoration-color: initial; float: none; display: inline !important;&quot;&gt;Payment&lt;/span&gt;" style="text;whiteSpace=wrap;html=1;fontSize=18;align=center;" vertex="1" parent="1">
          <mxGeometry x="500" y="550" width="120" height="50" as="geometry" />
        </mxCell>
        <mxCell id="JxC6mWeHpskzbYdKK2vP-22" value="&lt;span style=&quot;font-size: 18px;&quot;&gt;Detailed analysis, advance report&lt;/span&gt;" style="whiteSpace=wrap;html=1;rounded=0;shadow=1;labelBackgroundColor=none;strokeWidth=1;fontFamily=Verdana;fontSize=8;align=center;spacing=6;" vertex="1" parent="1">
          <mxGeometry x="290" y="760" width="310" height="60" as="geometry" />
        </mxCell>
        <mxCell id="JxC6mWeHpskzbYdKK2vP-23" style="edgeStyle=orthogonalEdgeStyle;rounded=0;html=1;labelBackgroundColor=none;startSize=5;endArrow=classicThin;endFill=1;endSize=5;jettySize=auto;orthogonalLoop=1;strokeWidth=1;fontFamily=Verdana;fontSize=8;exitX=0.5;exitY=1;exitDx=0;exitDy=0;entryX=0.465;entryY=-0.055;entryDx=0;entryDy=0;entryPerimeter=0;" edge="1" parent="1" source="60e70716793133e9-12" target="JxC6mWeHpskzbYdKK2vP-22">
          <mxGeometry relative="1" as="geometry">
            <mxPoint x="690" y="540" as="sourcePoint" />
            <mxPoint x="445.07692307692287" y="640" as="targetPoint" />
          </mxGeometry>
        </mxCell>
        <mxCell id="JxC6mWeHpskzbYdKK2vP-24" value="&lt;span style=&quot;color: rgb(0, 0, 0); font-family: Verdana; font-size: 18px; font-style: normal; font-variant-ligatures: normal; font-variant-caps: normal; font-weight: 400; letter-spacing: normal; orphans: 2; text-indent: 0px; text-transform: none; widows: 2; word-spacing: 0px; -webkit-text-stroke-width: 0px; background-color: rgb(248, 249, 250); text-decoration-thickness: initial; text-decoration-style: initial; text-decoration-color: initial; float: none; display: inline !important;&quot;&gt;Free&lt;/span&gt;" style="text;whiteSpace=wrap;html=1;fontSize=18;align=center;" vertex="1" parent="1">
          <mxGeometry x="735" y="550" width="120" height="50" as="geometry" />
        </mxCell>
        <mxCell id="JxC6mWeHpskzbYdKK2vP-25" style="edgeStyle=orthogonalEdgeStyle;rounded=0;html=1;labelBackgroundColor=none;startSize=5;endArrow=classicThin;endFill=1;endSize=5;jettySize=auto;orthogonalLoop=1;strokeWidth=1;fontFamily=Verdana;fontSize=8;exitX=0.75;exitY=0;exitDx=0;exitDy=0;entryX=0.5;entryY=1;entryDx=0;entryDy=0;" edge="1" parent="1" source="JxC6mWeHpskzbYdKK2vP-19" target="60e70716793133e9-7">
          <mxGeometry relative="1" as="geometry">
            <mxPoint x="690" y="540" as="sourcePoint" />
            <mxPoint x="915.0769230769229" y="690" as="targetPoint" />
            <Array as="points">
              <mxPoint x="1023" y="680" />
              <mxPoint x="1023" y="380" />
            </Array>
          </mxGeometry>
        </mxCell>
        <mxCell id="JxC6mWeHpskzbYdKK2vP-26" value="&lt;font face=&quot;Verdana&quot;&gt;Very dang&lt;/font&gt;" style="text;whiteSpace=wrap;html=1;fontSize=18;align=center;" vertex="1" parent="1">
          <mxGeometry x="960" y="550" width="120" height="50" as="geometry" />
        </mxCell>
      </root>
    </mxGraphModel>
  </diagram>
</mxfile>
